<?xml version="1.0" standalone="no"?>
<!DOCTYPE svg PUBLIC "-//W3C//DTD SVG 20010904//EN"
 "http://www.w3.org/TR/2001/REC-SVG-20010904/DTD/svg10.dtd">
<svg version="1.0" xmlns="http://www.w3.org/2000/svg"
 width="1024.000000pt" height="1024.000000pt" viewBox="0 0 1024.000000 1024.000000"
 preserveAspectRatio="xMidYMid meet">
<metadata>
Created by potrace 1.11, written by Peter Selinger 2001-2013
</metadata>
<g transform="translate(0.000000,1024.000000) scale(0.100000,-0.100000)"
fill="#000000" stroke="none">
<path d="M8169 9456 c-51 -14 -78 -35 -105 -86 -17 -31 -19 -62 -21 -295 -3
-289 2 -319 54 -371 54 -55 181 -67 260 -25 41 22 64 49 80 96 11 34 14 541 3
565 -27 58 -43 78 -79 98 -49 28 -126 35 -192 18z"/>
<path d="M7495 9182 c-60 -14 -147 -104 -169 -175 -28 -90 -14 -115 182 -313
213 -216 227 -226 302 -230 50 -3 64 1 102 26 95 63 144 181 105 256 -18 36
-387 403 -423 422 -29 15 -69 21 -99 14z"/>
<path d="M8900 9170 c-41 -22 -391 -365 -420 -413 -31 -50 -27 -112 13 -172
39 -60 114 -115 166 -122 73 -10 101 9 268 177 207 207 222 223 239 271 18 54
11 90 -33 156 -66 100 -159 141 -233 103z"/>
<path d="M8807 8444 c-2 -2 -12 -5 -23 -7 -39 -6 -91 -45 -108 -82 -21 -44
-27 -121 -14 -183 12 -55 62 -105 118 -120 25 -6 146 -11 279 -12 273 -1 324
8 364 63 36 49 44 76 42 147 -2 103 -39 160 -120 187 -27 9 -529 15 -538 7z"/>
<path d="M7520 7809 c-239 -241 -439 -438 -445 -438 -9 -1 -289 284 -402 408
-56 62 -132 114 -198 138 -74 26 -215 23 -278 -5 -26 -11 -49 -20 -50 -19 -7
5 -80 -63 -227 -208 l-155 -153 -110 44 c-108 43 -356 128 -405 138 -34 7 -52
11 -150 34 -47 11 -103 23 -125 26 -38 6 -87 14 -130 22 -11 2 -42 6 -70 9
-27 3 -66 7 -85 10 -171 24 -652 24 -780 0 -14 -2 -50 -6 -80 -9 -225 -18
-602 -117 -875 -228 -195 -79 -488 -240 -635 -347 -30 -22 -75 -55 -100 -73
-186 -136 -487 -420 -620 -583 -35 -44 -67 -82 -70 -85 -14 -14 -82 -103 -125
-165 -100 -144 -112 -161 -140 -210 -16 -27 -37 -63 -47 -80 -42 -70 -135
-256 -163 -325 -17 -41 -35 -84 -40 -95 -4 -11 -9 -24 -11 -30 -2 -5 -21 -62
-44 -125 -64 -185 -134 -483 -156 -665 -41 -357 -39 -721 7 -1020 6 -38 13
-86 16 -105 2 -19 14 -75 25 -125 11 -49 26 -118 34 -152 13 -58 93 -312 113
-358 5 -11 16 -36 25 -57 9 -20 16 -38 16 -41 0 -2 8 -22 17 -43 9 -22 17 -41
18 -44 1 -3 25 -52 55 -110 30 -58 57 -109 59 -115 2 -5 9 -17 17 -25 7 -8 14
-19 15 -25 2 -10 11 -26 56 -97 86 -139 154 -234 275 -383 131 -163 379 -415
513 -520 28 -22 57 -46 66 -55 17 -17 21 -19 164 -122 175 -125 464 -288 630
-355 105 -42 154 -60 270 -98 72 -23 144 -46 160 -50 17 -4 37 -9 45 -11 149
-36 167 -40 230 -50 19 -2 58 -9 85 -14 28 -5 73 -12 100 -15 28 -3 66 -8 85
-10 275 -35 723 -23 1000 25 30 5 73 12 94 16 48 7 312 71 346 83 14 6 70 24
125 41 188 60 408 162 630 294 66 39 125 74 130 79 6 4 46 33 90 64 79 57 248
190 314 248 111 98 304 299 417 435 43 52 81 97 85 100 3 3 25 34 50 70 24 36
56 81 71 100 14 19 57 87 95 150 176 293 298 583 378 900 36 143 39 158 55
260 6 36 13 76 16 90 5 27 7 45 25 195 12 102 17 592 6 655 -3 19 -9 64 -12
100 -13 130 -56 359 -95 510 -22 85 -41 160 -43 165 -7 19 -14 40 -37 108 -13
38 -42 117 -65 175 l-42 107 162 165 c89 91 174 184 188 206 58 94 70 246 27
357 -28 74 -78 132 -338 390 l-209 208 441 440 440 441 -79 75 c-44 42 -109
103 -145 137 l-65 62 -435 -437z m-3664 -1347 c51 -15 119 -73 146 -126 30
-58 35 -158 13 -226 -34 -103 -126 -165 -260 -175 -167 -12 -215 -20 -314 -50
-173 -51 -309 -140 -472 -306 -176 -181 -278 -419 -294 -684 -6 -111 -9 -126
-35 -181 -70 -144 -303 -181 -422 -67 -66 63 -81 105 -84 228 -1 90 2 128 22
270 28 202 147 480 284 662 69 93 279 313 299 313 6 0 11 4 11 8 0 14 209 146
305 194 171 85 326 126 575 151 59 5 188 -1 226 -11z"/>
<path d="M8571 7992 c-56 -44 -77 -67 -97 -112 -20 -45 -20 -100 1 -140 20
-40 370 -389 417 -417 69 -41 165 -13 225 65 65 85 74 136 37 210 -27 55 -335
369 -401 409 -57 35 -123 30 -182 -15z"/>
</g>
</svg>
